<?xml version="1.0" encoding="UTF-8" standalone="no"?>
<!-- Created with Inkscape (http://www.inkscape.org/) -->

<svg
   width="119.14629mm"
   height="61.301239mm"
   viewBox="0 0 119.14629 61.301239"
   version="1.1"
   id="svg5"
   xml:space="preserve"
   inkscape:export-filename="bitmap.svg"
   inkscape:export-xdpi="96"
   inkscape:export-ydpi="96"
   xmlns:inkscape="http://www.inkscape.org/namespaces/inkscape"
   xmlns:sodipodi="http://sodipodi.sourceforge.net/DTD/sodipodi-0.dtd"
   xmlns="http://www.w3.org/2000/svg"
   xmlns:svg="http://www.w3.org/2000/svg"><sodipodi:namedview
     id="namedview7"
     pagecolor="#ffffff"
     bordercolor="#000000"
     borderopacity="0.25"
     inkscape:showpageshadow="2"
     inkscape:pageopacity="0.0"
     inkscape:pagecheckerboard="0"
     inkscape:deskcolor="#d1d1d1"
     inkscape:document-units="mm"
     showgrid="false" /><defs
     id="defs2"><linearGradient
       id="linearGradient2418"
       inkscape:swatch="solid"><stop
         style="stop-color:#000000;stop-opacity:1;"
         offset="0"
         id="stop2416" /></linearGradient><linearGradient
       id="linearGradient2315"
       inkscape:swatch="solid"><stop
         style="stop-color:#000000;stop-opacity:1;"
         offset="0"
         id="stop2313" /></linearGradient></defs><g
     inkscape:label="Layer 1"
     inkscape:groupmode="layer"
     id="layer1"
     transform="translate(-40.151265,-92.715497)"><path
       id="path2122"
       style="display:inline;fill:none;fill-opacity:1;stroke:#8A2BE2;stroke-width:1"
       d="m 99.724146,93.215499 a 59.073189,59.073189 0 0 0 -59.072881,59.072881 59.073189,59.073189 0 0 0 0.04599,1.22835 h 11.185881 a 47.897182,47.897182 0 0 1 -0.05581,-1.35082 47.897182,47.897182 0 0 1 47.896819,-47.89734 47.897182,47.897182 0 0 1 47.897335,47.89734 47.897182,47.897182 0 0 1 -0.05581,1.35082 h 11.21637 a 59.073189,59.073189 0 0 0 0.0155,-1.22835 59.073189,59.073189 0 0 0 -59.073395,-59.072881 z" /><path
       style="display:inline;fill:#8A2BE2;stroke:#8A2BE2;stroke-width:1"
       d="m 59.313159,152.40789 81.284211,-0.43421 z"
       id="path2307" /><path
       style="display:inline;fill:#8A2BE2;stroke:#8A2BE2;stroke-width:1"
       d="M 99.694737,152.23421 99.260526,106.46842 Z"
       id="path2309" /><path
       id="path2311"
       style="display:inline;fill:none;fill-opacity:1;stroke:#8A2BE2;stroke-width:0.974031"
       d="m 99.69469,145.01331 a 7.3945635,6.9908785 0 0 0 -7.394446,6.99076 7.3945635,6.9908785 0 0 0 0.01035,0.2359 h 14.768196 a 7.3945635,6.9908785 0 0 0 0.0103,-0.2359 7.3945635,6.9908785 0 0 0 -7.394444,-6.99076 z" /><path
       style="fill:#8A2BE2;fill-opacity:1;stroke:#8A2BE2;stroke-width:1"
       d="m 92.052631,150.84473 -31.78421,-5.47105 z"
       id="path2382" /><path
       style="fill:#8A2BE2;fill-opacity:1;stroke:#8A2BE2;stroke-width:1"
       d="M 92.747369,149.97631 61.571052,138.42632 Z"
       id="path2384" /><path
       style="fill:#8A2BE2;fill-opacity:1;stroke:#8A2BE2;stroke-width:1"
       d="M 93.442104,148.84737 64.610527,132 Z"
       id="path2386" /><path
       style="fill:#8A2BE2;fill-opacity:1;stroke:#8A2BE2;stroke-width:1"
       d="M 94.223683,147.45789 68.692106,126.35526 Z"
       id="path2388" /><path
       style="fill:#8A2BE2;fill-opacity:1;stroke:#8A2BE2;stroke-width:1"
       d="M 95.178948,146.58947 73.381578,121.14473 Z"
       id="path2390" /><path
       style="fill:#8A2BE2;fill-opacity:1;stroke:#8A2BE2;stroke-width:1"
       d="M 96.221051,145.98158 79.286842,117.23684 Z"
       id="path2394" /><path
       style="fill:#8A2BE2;fill-opacity:1;stroke:#8A2BE2;stroke-width:1"
       d="M 97.263158,145.28684 85.539473,114.19737 Z"
       id="path2396" /><path
       style="fill:#8A2BE2;fill-opacity:1;stroke:#8A2BE2;stroke-width:1"
       d="m 98.739472,145.11316 -6.339472,-33 z"
       id="path2398" /><path
       style="fill:#8A2BE2;fill-opacity:1;stroke:#8A2BE2;stroke-width:1"
       d="m 100.73684,145.11316 5.81842,-33 z"
       id="path2400" /><path
       style="fill:#8A2BE2;fill-opacity:1;stroke:#8A2BE2;stroke-width:1"
       d="m 102.21316,145.54737 11.20263,-31.87106 z"
       id="path2402" /><path
       style="fill:#8A2BE2;fill-opacity:1;stroke:#8A2BE2;stroke-width:1"
       d="M 103.42895,145.80789 119.8421,116.80263 Z"
       id="path2404" /><path
       style="fill:#8A2BE2;fill-opacity:1;stroke:#8A2BE2;stroke-width:1"
       d="m 104.55789,146.50263 21.01579,-25.70526 z"
       id="path2406" /><path
       style="fill:#8A2BE2;fill-opacity:1;stroke:#8A2BE2;stroke-width:1"
       d="m 105.6,147.45789 24.92368,-21.62368 z"
       id="path2408" /><path
       style="fill:#8A2BE2;fill-opacity:1;stroke:#8A2BE2;stroke-width:1"
       d="m 106.12105,148.5 28.6579,-17.02105 z"
       id="path2410" /><path
       style="fill:#8A2BE2;fill-opacity:1;stroke:#8A2BE2;stroke-width:1"
       d="m 106.72895,149.62895 30.91579,-11.72369 z"
       id="path2412" /><path
       style="fill:#8A2BE2;fill-opacity:1;stroke:#8A2BE2;stroke-width:1"
       d="m 107.25,150.75789 32.30526,-5.90526 z"
       id="path2414" /></g></svg>